<svg id="Warstwa_3_xA0_Obraz_1_" xmlns="http://www.w3.org/2000/svg" viewBox="0 0 255.1 110"><style>.st0{fill:#1574ff}</style><path class="st0" d="M88.2 55.9c.4.1 1.1.1 1.9.1 1.6 0 2.7-.3 3.3-1 .5-.5.8-1.2.8-2.1 0-1.6-1.1-2.4-2-2.7 1-.4 1.6-1.3 1.6-2.3 0-.8-.3-1.5-.8-1.9-.6-.5-1.4-.8-2.6-.8-.9 0-1.7.1-2.3.2v10.5h.1zm1.3-9.5c.2 0 .5-.1 1.1-.1 1.3 0 2.1.5 2.1 1.7 0 1-.8 1.8-2.1 1.8h-1.1v-3.4zm0 4.5h1c1.4 0 2.5.6 2.5 2 0 1.5-1.2 2.1-2.5 2.1-.4 0-.8 0-1-.1v-4zm7.7 5.1v-7.6h-1.3V56h1.3zm-.6-10.7c-.5 0-.8.4-.8.9s.3.9.8.9.8-.4.8-.9-.3-.9-.8-.9zm5.6 2.9c-1.9 0-3.4 1.5-3.4 4 0 2.4 1.4 3.9 3.3 3.9 1.7 0 3.4-1.2 3.4-4 .1-2.3-1.3-3.9-3.3-3.9zm0 1c1.5 0 2.1 1.6 2.1 2.9 0 1.7-.9 3-2.1 3-1.2 0-2.1-1.3-2.1-2.9 0-1.5.6-3 2.1-3zm6 6.8l.1-1.3c.5 1 1.3 1.4 2.3 1.4 1.5 0 3.1-1.4 3.1-4.1 0-2.3-1.2-3.9-2.9-3.9-1.1 0-1.9.6-2.4 1.4v-4.8h-1.2v9.2c0 .7 0 1.4-.1 2h1.1v.1zm.2-4.5c0-.2 0-.4.1-.6.3-1.1 1.1-1.7 1.9-1.7 1.3 0 2.1 1.3 2.1 2.8 0 1.7-.8 2.9-2.1 2.9-.9 0-1.6-.7-1.9-1.6 0-.2-.1-.3-.1-.5v-1.3zm11.9 4.5c-.1-.5-.1-1.2-.1-1.8v-2.9c0-1.5-.5-3.1-2.6-3.1-.9 0-1.7.3-2.3.7l.3.9c.5-.3 1.2-.6 1.8-.6 1.4 0 1.6 1.1 1.6 1.8v.2c-2.7 0-4.2 1-4.2 2.8 0 1.1.7 2.2 2.1 2.2 1 0 1.7-.5 2.1-1.1l.1 1 1.2-.1zm-1.3-2.6c0 .1 0 .3-.1.4-.2.6-.8 1.3-1.7 1.3-.6 0-1.2-.4-1.2-1.3 0-1.5 1.6-1.7 2.9-1.7v1.3h.1zm3.2 2.6h1.3v-4.6c0-.2 0-.5.1-.6.2-.8.9-1.4 1.7-1.4 1.2 0 1.6 1 1.6 2.3v4.4h1.3v-4.6c0-2.6-1.5-3.2-2.4-3.2-1.1 0-1.9.7-2.3 1.4l-.1-1.3h-1.1c0 .6.1 1.3.1 2.1V56h-.2zm9.2-11.2h-1.2V56h1.2v-2.9l.6-.8 2.4 3.7h1.5l-3-4.5 2.7-3.1h-1.5l-2 2.6-.6.9-.1-7.1zm7 11.2v-7.6h-1.3V56h1.3zm-.7-10.7c-.5 0-.8.4-.8.9s.3.9.8.9.8-.4.8-.9-.3-.9-.8-.9zm2.8 10.7h1.3v-4.6c0-.2 0-.5.1-.6.2-.8.9-1.4 1.7-1.4 1.2 0 1.6 1 1.6 2.3v4.4h1.3v-4.6c0-2.6-1.5-3.2-2.4-3.2-1.1 0-1.9.7-2.3 1.4l-.1-1.3h-1.1c0 .6.1 1.3.1 2.1V56h-.2zm12.8-7.6l-.1 1.2c-.3-.6-1-1.3-2.2-1.3-1.6 0-3.1 1.5-3.1 4 0 2.1 1.2 3.7 2.9 3.7 1.1 0 1.8-.6 2.2-1.3v.9c0 1.9-.9 2.7-2.2 2.7-.9 0-1.6-.3-2-.6l-.3 1.1c.6.4 1.5.6 2.3.6.9 0 1.8-.2 2.5-.9s1-1.7 1-3.5v-4.4c0-.9 0-1.5.1-2.1l-1.1-.1zm-.2 4.3c0 .2 0 .5-.1.7-.3.9-1 1.4-1.7 1.4-1.4 0-2-1.2-2-2.7 0-1.8.9-2.9 2.1-2.9.9 0 1.5.7 1.8 1.5.1.2.1.4.1.6v1.4h-.2zm11.3 3.3c-.1-.5-.1-1.2-.1-1.8v-2.9c0-1.5-.5-3.1-2.6-3.1-.9 0-1.7.3-2.3.7l.3.9c.5-.3 1.2-.6 1.8-.6 1.4 0 1.6 1.1 1.6 1.8v.2c-2.7 0-4.2 1-4.2 2.8 0 1.1.7 2.2 2.1 2.2 1 0 1.7-.5 2.1-1.1l.1 1 1.2-.1zm-1.3-2.6c0 .1 0 .3-.1.4-.2.6-.8 1.3-1.7 1.3-.6 0-1.2-.4-1.2-1.3 0-1.5 1.6-1.7 2.9-1.7v1.3h.1zm3.2 2.6h1.3v-4.6c0-.2 0-.5.1-.6.2-.8.9-1.4 1.7-1.4 1.2 0 1.6 1 1.6 2.3v4.4h1.3v-4.6c0-2.6-1.5-3.2-2.4-3.2-1.1 0-1.9.7-2.3 1.4l-.1-1.3h-1.1c0 .6.1 1.3.1 2.1V56h-.2zM179 44.8v4.6c-.3-.6-1-1.2-2.1-1.2-1.7 0-3.1 1.6-3.1 4.1 0 2.3 1.3 3.9 3 3.9 1.1 0 2-.6 2.4-1.5l.1 1.3h1.1c0-.5-.1-1.3-.1-2v-9.2H179zm0 8c0 .2 0 .4-.1.6-.2 1-1 1.7-1.8 1.7-1.4 0-2-1.3-2-2.8 0-1.7.8-2.9 2.1-2.9.9 0 1.6.7 1.8 1.6 0 .2.1.4.1.6v1.2h-.1zM88.2 73.9c.4.1 1.1.1 1.9.1 1.6 0 2.7-.3 3.3-1 .5-.5.8-1.2.8-2.1 0-1.6-1.1-2.4-2-2.7 1-.4 1.6-1.3 1.6-2.3 0-.8-.3-1.5-.8-1.9-.6-.5-1.4-.8-2.6-.8-.9 0-1.7.1-2.3.2v10.5h.1zm1.3-9.5c.2 0 .5-.1 1.1-.1 1.3 0 2.1.5 2.1 1.7 0 1-.8 1.8-2.1 1.8h-1.1v-3.4zm0 4.4h1c1.4 0 2.5.6 2.5 2 0 1.5-1.2 2.1-2.5 2.1-.4 0-.8 0-1-.1v-4zm7.7 5.1v-7.6h-1.3v7.6h1.3zm-.6-10.6c-.5 0-.8.4-.8.9s.3.9.8.9.8-.4.8-.9-.3-.9-.8-.9zm5.6 2.8c-1.9 0-3.4 1.5-3.4 4 0 2.4 1.4 3.9 3.3 3.9 1.7 0 3.4-1.2 3.4-4 .1-2.3-1.3-3.9-3.3-3.9zm0 1.1c1.5 0 2.1 1.6 2.1 2.9 0 1.7-.9 3-2.1 3-1.2 0-2.1-1.3-2.1-2.9 0-1.5.6-3 2.1-3zm13.4 6.7h1.2l-.6-10.6h-1.6l-1.7 5.1c-.4 1.3-.8 2.5-1 3.6-.2-1.1-.6-2.3-1-3.6l-1.6-5.1h-1.6l-.7 10.6h1.2l.3-4.6c.1-1.6.2-3.4.2-4.7.3 1.3.7 2.6 1.1 4.1l1.6 5.1h.9l1.7-5.2c.5-1.5.9-2.8 1.2-4 0 1.3.1 3.1.1 4.6l.3 4.7zm6.1-7.8c-1.9 0-3.4 1.5-3.4 4 0 2.4 1.4 3.9 3.3 3.9 1.7 0 3.4-1.2 3.4-4 0-2.3-1.3-3.9-3.3-3.9zm0 1.1c1.5 0 2.1 1.6 2.1 2.9 0 1.7-.9 3-2.1 3-1.2 0-2.1-1.3-2.1-2.9-.1-1.5.6-3 2.1-3zm4.9 6.7h1.3V62.7h-1.3v11.2zm9-3.5v-.6c0-1.4-.6-3.6-2.9-3.6-2 0-3.2 1.8-3.2 4.1s1.3 3.8 3.4 3.8c1.1 0 1.9-.3 2.3-.5l-.2-1c-.5.2-1 .4-1.9.4-1.3 0-2.3-.8-2.4-2.6h4.9zm-4.9-1c.1-1 .7-2.3 1.9-2.3 1.4 0 1.8 1.4 1.7 2.3h-3.6zm11.2 3.2c-.4.2-.8.4-1.5.4-1.4 0-2.4-1.1-2.4-2.9 0-1.6.9-2.9 2.4-2.9.7 0 1.2.2 1.5.4l.3-1.1c-.3-.2-1-.4-1.7-.4-2.3 0-3.7 1.7-3.7 4s1.4 3.9 3.4 3.9c.9 0 1.7-.3 2-.4l-.3-1zm7.5-6.3h-1.3V71c0 .3 0 .5-.1.7-.2.6-.8 1.3-1.7 1.3-1.1 0-1.5-1-1.5-2.4v-4.2h-1.3v4.5c0 2.7 1.3 3.3 2.4 3.3 1.2 0 2-.8 2.3-1.4l.1 1.2h1.1c0-.6-.1-1.3-.1-2.1l.1-5.6zm2.1 7.6h1.3V62.7h-1.3v11.2zm8.3 0c-.1-.5-.1-1.2-.1-1.8v-2.9c0-1.5-.5-3.1-2.6-3.1-.9 0-1.7.3-2.3.7l.3.9c.5-.3 1.2-.6 1.8-.6 1.4 0 1.6 1.1 1.6 1.8v.2c-2.7 0-4.2 1-4.2 2.8 0 1.1.7 2.2 2.1 2.2 1 0 1.7-.5 2.1-1.1l.1 1h1.2v-.1zm-1.3-2.5c0 .1 0 .3-.1.4-.2.6-.8 1.3-1.7 1.3-.6 0-1.2-.4-1.2-1.3 0-1.5 1.6-1.7 2.9-1.7v1.3h.1zm3.2 2.5h1.2v-4.1c0-.2 0-.5.1-.6.2-1 .8-1.8 1.7-1.8h.4v-1.3h-.4c-.8 0-1.6.6-1.9 1.7h-.1v-1.5h-1.1c0 .7.1 1.5.1 2.4v5.2zm7.8 0h1.2v-4.1c0-.2 0-.5.1-.6.2-1 .8-1.8 1.7-1.8h.4v-1.3h-.4c-.8 0-1.6.6-1.9 1.7h-.1v-1.5h-1.1c0 .7.1 1.5.1 2.4v5.2zm10.1-3.5v-.6c0-1.4-.6-3.6-2.9-3.6-2 0-3.2 1.8-3.2 4.1s1.3 3.8 3.4 3.8c1.1 0 1.9-.3 2.3-.5l-.2-1c-.5.2-1 .4-1.9.4-1.3 0-2.3-.8-2.4-2.6h4.9zm-4.9-1c.1-1 .7-2.3 1.9-2.3 1.4 0 1.8 1.4 1.7 2.3h-3.6zm6 4.2c.5.3 1.2.5 1.9.5 1.6 0 2.6-.9 2.6-2.3 0-1.1-.6-1.8-1.8-2.3-.9-.4-1.3-.7-1.3-1.3s.4-1 1.2-1c.6 0 1.1.3 1.4.4l.3-1c-.4-.3-1-.5-1.7-.5-1.5 0-2.4 1-2.4 2.2 0 .9.6 1.7 1.8 2.2.9.4 1.3.7 1.3 1.4 0 .6-.4 1.1-1.3 1.1-.6 0-1.3-.3-1.7-.6l-.3 1.2zm9.1-7.5c-1.9 0-3.4 1.5-3.4 4 0 2.4 1.4 3.9 3.3 3.9 1.7 0 3.4-1.2 3.4-4 0-2.3-1.3-3.9-3.3-3.9zm-.1 1.1c1.5 0 2.1 1.6 2.1 2.9 0 1.7-.9 3-2.1 3-1.2 0-2.1-1.3-2.1-2.9 0-1.5.7-3 2.1-3zm10.8-.9h-1.3V71c0 .3 0 .5-.1.7-.2.6-.8 1.3-1.7 1.3-1.1 0-1.5-1-1.5-2.4v-4.2h-1.3v4.5c0 2.7 1.3 3.3 2.4 3.3 1.2 0 2-.8 2.3-1.4l.1 1.2h1.1c0-.6-.1-1.3-.1-2.1v-5.6h.1zm2.1 7.6h1.2v-4.1c0-.2 0-.5.1-.6.2-1 .8-1.8 1.7-1.8h.4v-1.3h-.4c-.8 0-1.6.6-1.9 1.7h-.1v-1.5h-1.1c0 .7.1 1.5.1 2.4v5.2zm9.2-1.3c-.4.2-.8.4-1.5.4-1.4 0-2.4-1.1-2.4-2.9 0-1.6.9-2.9 2.4-2.9.7 0 1.2.2 1.5.4l.3-1.1c-.3-.2-1-.4-1.7-.4-2.3 0-3.7 1.7-3.7 4s1.4 3.9 3.4 3.9c.9 0 1.7-.3 2-.4l-.3-1zm7.2-2.2v-.6c0-1.4-.6-3.6-2.9-3.6-2 0-3.2 1.8-3.2 4.1s1.3 3.8 3.4 3.8c1.1 0 1.9-.3 2.3-.5l-.2-1c-.5.2-1 .4-1.9.4-1.3 0-2.3-.8-2.4-2.6h4.9zm-4.8-1c.1-1 .7-2.3 1.9-2.3 1.4 0 1.8 1.4 1.7 2.3h-3.6zm5.9 4.2c.5.3 1.2.5 1.9.5 1.6 0 2.6-.9 2.6-2.3 0-1.1-.6-1.8-1.8-2.3-.9-.4-1.3-.7-1.3-1.3s.4-1 1.2-1c.6 0 1.1.3 1.4.4l.3-1c-.4-.3-1-.5-1.7-.5-1.5 0-2.4 1-2.4 2.2 0 .9.6 1.7 1.8 2.2.9.4 1.3.7 1.3 1.4 0 .6-.4 1.1-1.3 1.1-.6 0-1.3-.3-1.7-.6l-.3 1.2zM88.2 91.9h1.2v-4.6h1.2c1.1 0 1.6.6 1.9 2.1.3 1.3.5 2.2.6 2.5h1.3c-.2-.4-.4-1.4-.7-2.9-.2-1.1-.7-1.9-1.4-2.1 1-.4 1.8-1.3 1.8-2.7 0-.8-.3-1.5-.8-2-.6-.6-1.5-.9-2.8-.9-.9 0-1.8.1-2.4.2l.1 10.4zm1.3-9.5c.2-.1.6-.1 1.2-.1 1.3 0 2.2.6 2.2 2 0 1.2-.8 2-2.2 2h-1.2v-3.9zm12 5.9v-.6c0-1.4-.6-3.6-2.9-3.6-2 0-3.2 1.8-3.2 4.1s1.3 3.8 3.4 3.8c1.1 0 1.9-.3 2.3-.5l-.2-1c-.5.2-1 .4-1.9.4-1.3 0-2.3-.8-2.4-2.6h4.9zm-4.8-1c.1-1 .7-2.3 1.9-2.3 1.4 0 1.8 1.4 1.7 2.3h-3.6zm5.9 4.2c.5.3 1.2.5 1.9.5 1.6 0 2.6-.9 2.6-2.3 0-1.1-.6-1.8-1.8-2.3-.9-.4-1.3-.7-1.3-1.3s.4-1 1.2-1c.6 0 1.1.3 1.4.4l.3-1c-.4-.3-1-.5-1.7-.5-1.5 0-2.4 1-2.4 2.2 0 .9.6 1.7 1.8 2.2.9.4 1.3.7 1.3 1.4 0 .6-.4 1.1-1.3 1.1-.6 0-1.3-.3-1.7-.6l-.3 1.2zm11.8-3.2v-.6c0-1.4-.6-3.6-2.9-3.6-2 0-3.2 1.8-3.2 4.1s1.3 3.8 3.4 3.8c1.1 0 1.9-.3 2.3-.5l-.2-1c-.5.2-1 .4-1.9.4-1.3 0-2.3-.8-2.4-2.6h4.9zm-4.9-1c.1-1 .7-2.3 1.9-2.3 1.4 0 1.8 1.4 1.7 2.3h-3.6zm11.5 4.6c-.1-.5-.1-1.2-.1-1.8v-2.9c0-1.5-.5-3.1-2.6-3.1-.9 0-1.7.3-2.3.7l.3.9c.5-.3 1.2-.6 1.8-.6 1.4 0 1.6 1.1 1.6 1.8v.2c-2.7 0-4.2 1-4.2 2.8 0 1.1.7 2.2 2.1 2.2 1 0 1.7-.5 2.1-1.1l.1 1 1.2-.1zm-1.4-2.6c0 .1 0 .3-.1.4-.2.6-.8 1.3-1.7 1.3-.6 0-1.2-.4-1.2-1.3 0-1.5 1.6-1.7 2.9-1.7v1.3h.1zm3.3 2.6h1.2v-4.1c0-.2 0-.5.1-.6.2-1 .8-1.8 1.7-1.8h.4v-1.3h-.4c-.8 0-1.6.6-1.9 1.7h-.1v-1.5h-1.1c0 .7.1 1.5.1 2.4v5.2zm9.2-1.3c-.4.2-.8.4-1.5.4-1.4 0-2.4-1.1-2.4-2.9 0-1.6.9-2.9 2.4-2.9.7 0 1.2.2 1.5.4l.3-1.1c-.3-.2-1-.4-1.7-.4-2.3 0-3.7 1.7-3.7 4s1.4 3.9 3.4 3.9c.9 0 1.7-.3 2-.4l-.3-1zm1.7 1.3h1.3v-4.6c0-.3 0-.5.1-.7.2-.8.9-1.4 1.7-1.4 1.2 0 1.6 1 1.6 2.3v4.4h1.3v-4.5c0-2.6-1.5-3.3-2.4-3.3-.5 0-.9.2-1.3.4s-.7.6-.9 1v-4.8h-1.3v11.2h-.1zm11-10.6v10.6h1.2V81.3h-1.2zm3.6 10.6h1.3v-4.6c0-.2 0-.5.1-.6.2-.8.9-1.4 1.7-1.4 1.2 0 1.6 1 1.6 2.3V92h1.3v-4.6c0-2.6-1.5-3.2-2.4-3.2-1.1 0-1.9.7-2.3 1.4l-.1-1.3h-1.1c0 .6.1 1.3.1 2.1v5.5h-.2zm9.3 0v-6.6h1.7v-1.1h-1.7v-.4c0-1.2.3-2.2 1.3-2.2.4 0 .6.1.8.2l.2-1.1c-.2-.1-.6-.2-1.1-.2-.6 0-1.2.2-1.7.7-.6.6-.8 1.6-.8 2.7v.4h-1v1.1h1V92l1.3-.1zm2.8 0h1.2v-4.1c0-.2 0-.5.1-.6.2-1 .8-1.8 1.7-1.8h.4v-1.3h-.4c-.8 0-1.6.6-1.9 1.7h-.1v-1.5h-1.1c0 .7.1 1.5.1 2.4v5.2zm9.6 0c-.1-.5-.1-1.2-.1-1.8v-2.9c0-1.5-.5-3.1-2.6-3.1-.9 0-1.7.3-2.3.7l.3.9c.5-.3 1.2-.6 1.8-.6 1.4 0 1.6 1.1 1.6 1.8v.2c-2.7 0-4.2 1-4.2 2.8 0 1.1.7 2.2 2.1 2.2 1 0 1.7-.5 2.1-1.1l.1 1 1.2-.1zm-1.4-2.6c0 .1 0 .3-.1.4-.2.6-.8 1.3-1.7 1.3-.6 0-1.2-.4-1.2-1.3 0-1.5 1.6-1.7 2.9-1.7v1.3h.1zm2.8 2.2c.5.3 1.2.5 1.9.5 1.6 0 2.6-.9 2.6-2.3 0-1.1-.6-1.8-1.8-2.3-.9-.4-1.3-.7-1.3-1.3s.4-1 1.2-1c.6 0 1.1.3 1.4.4l.3-1c-.4-.3-1-.5-1.7-.5-1.5 0-2.4 1-2.4 2.2 0 .9.6 1.7 1.8 2.2.9.4 1.3.7 1.3 1.4 0 .6-.4 1.1-1.3 1.1-.6 0-1.3-.3-1.7-.6l-.3 1.2zm6.5-9.1v1.8h-1.1v1.1h1.1v4.2c0 .9.1 1.6.5 2 .3.4.8.6 1.4.6.5 0 .9-.1 1.1-.2l-.1-1c-.2 0-.4.1-.7.1-.7 0-.9-.5-.9-1.5v-4.1h1.8v-1.1h-1.8v-2.2l-1.3.3zm4.4 9.5h1.2v-4.1c0-.2 0-.5.1-.6.2-1 .8-1.8 1.7-1.8h.4v-1.3h-.4c-.8 0-1.6.6-1.9 1.7v-1.5h-1.1c0 .7.1 1.5.1 2.4v5.2h-.1zm10.5-7.6h-1.3V89c0 .3 0 .5-.1.7-.2.6-.8 1.3-1.7 1.3-1.1 0-1.5-1-1.5-2.4v-4.2H187v4.5c0 2.7 1.3 3.3 2.4 3.3 1.2 0 2-.8 2.3-1.4l.1 1.2h1.1c0-.6-.1-1.3-.1-2.1v-5.6h.1zm6.8 6.3c-.4.2-.8.4-1.5.4-1.4 0-2.4-1.1-2.4-2.9 0-1.6.9-2.9 2.4-2.9.7 0 1.2.2 1.5.4l.3-1.1c-.3-.2-1-.4-1.7-.4-2.3 0-3.7 1.7-3.7 4S196 92 198 92c.9 0 1.7-.3 2-.4l-.3-1zm2.2-8.2v1.8h-1.1v1.1h1.1v4.2c0 .9.1 1.6.5 2 .3.4.8.6 1.4.6.5 0 .9-.1 1.1-.2l-.1-1c-.2 0-.4.1-.7.1-.7 0-.9-.5-.9-1.5v-4.1h1.8v-1.1h-1.8v-2.2l-1.3.3zm10.2 1.9h-1.3V89c0 .3 0 .5-.1.7-.2.6-.8 1.3-1.7 1.3-1.1 0-1.5-1-1.5-2.4v-4.2h-1.3v4.5c0 2.7 1.3 3.3 2.4 3.3 1.2 0 2-.8 2.3-1.4l.1 1.2h1.1c0-.6-.1-1.3-.1-2.1v-5.6h.1zm2.1 7.6h1.2v-4.1c0-.2 0-.5.1-.6.2-1 .8-1.8 1.7-1.8h.4v-1.3h-.4c-.8 0-1.6.6-1.9 1.7h-.1v-1.5h-1.1c0 .7.1 1.5.1 2.4v5.2zm10.1-3.6v-.6c0-1.4-.6-3.6-2.9-3.6-2 0-3.2 1.8-3.2 4.1s1.3 3.8 3.4 3.8c1.1 0 1.9-.3 2.3-.5l-.2-1c-.5.2-1 .4-1.9.4-1.3 0-2.3-.8-2.4-2.6h4.9zm-4.9-1c.1-1 .7-2.3 1.9-2.3 1.4 0 1.8 1.4 1.7 2.3h-3.6zM88.2 109.8h1.2v-4.3c.3.1.6.1 1 .1 1.2 0 2.3-.4 2.9-1.2.5-.6.7-1.3.7-2.3 0-.9-.3-1.7-.8-2.2-.6-.6-1.5-.9-2.7-.9-1 0-1.8.1-2.4.2v10.6h.1zm1.3-9.5c.2-.1.6-.1 1.2-.1 1.4 0 2.3.7 2.3 2.1 0 1.5-.9 2.3-2.4 2.3-.4 0-.8 0-1-.1v-4.2h-.1zm8.9 1.7c-1.9 0-3.4 1.5-3.4 4 0 2.4 1.4 3.9 3.3 3.9 1.7 0 3.4-1.2 3.4-4 0-2.3-1.3-3.9-3.3-3.9zm0 1.1c1.5 0 2.1 1.6 2.1 2.9 0 1.7-.9 3-2.1 3-1.2 0-2.1-1.3-2.1-2.9-.1-1.5.6-3 2.1-3zm4.9 6.7h1.3V98.6h-1.3v11.2zm8.4 0c-.1-.5-.1-1.2-.1-1.8v-2.9c0-1.5-.5-3.1-2.6-3.1-.9 0-1.7.3-2.3.7l.3.9c.5-.3 1.2-.6 1.8-.6 1.4 0 1.6 1.1 1.6 1.8v.2c-2.7 0-4.2 1-4.2 2.8 0 1.1.7 2.2 2.1 2.2 1 0 1.7-.5 2.1-1.1l.1 1 1.2-.1zm-1.4-2.5c0 .1 0 .3-.1.4-.2.6-.8 1.3-1.7 1.3-.6 0-1.2-.4-1.2-1.3 0-1.5 1.6-1.7 2.9-1.7v1.3h.1zm3.3 2.5h1.3v-4.6c0-.2 0-.5.1-.6.2-.8.9-1.4 1.7-1.4 1.2 0 1.6 1 1.6 2.3v4.4h1.3v-4.6c0-2.6-1.5-3.2-2.4-3.2-1.1 0-1.9.7-2.3 1.4l-.1-1.3h-1.3c0 .6.1 1.3.1 2.1v5.5zm12.7-11.2v4.6c-.3-.6-1-1.2-2.1-1.2-1.7 0-3.1 1.6-3.1 4.1 0 2.3 1.3 3.9 3 3.9 1.1 0 2-.6 2.4-1.5l.1 1.3h1.1c0-.5-.1-1.3-.1-2v-9.2h-1.3zm0 8c0 .2 0 .4-.1.6-.2 1-1 1.7-1.8 1.7-1.4 0-2-1.3-2-2.8 0-1.7.8-2.9 2.1-2.9.9 0 1.6.7 1.8 1.6 0 .2.1.4.1.6v1.2h-.1zm-16.6-80.9c0-3.8-2.7-6.3-6.1-6.9 2.5-1 4.2-3.2 4.2-6.1 0-4.9-3.7-7.3-10.3-7.3h-9.3v28.9h9.7c6.4.2 11.8-2.4 11.8-8.6zm145.4 8.6v-3.8h-1.6c-1.3 0-1.8-.7-1.8-2.1V3.2H246v26.5c0 3.9 2.3 5 5.5 5 1.4.1 2.7-.2 3.6-.4zm-11.8-11.4c0-5.8-2.9-10.4-9.4-10.4-3.4 0-5.8 1.3-7.9 3.4l-.4-2.8h-4.4v29.8h5.8v-8.5c1.4.2 2.9.4 4.5.4 8.1 0 11.8-5.2 11.8-11.9zm-6 .7c0 4.6-2 7.1-6 7.1-1.8 0-3.2-.4-4.4-.9v-9.7c2-2.2 3.7-3.2 5.8-3.2 3.5 0 4.6 2.9 4.6 6.7zm-19.2 7.8c0-1.9-1.5-3.4-3.4-3.4s-3.4 1.5-3.4 3.4 1.5 3.4 3.4 3.4c2 0 3.4-1.5 3.4-3.4zm-11 3.1v-29h-5.6v28.9h5.6v.1zm-8.7 0l-7.7-13.3c3.5-1.1 6-3.6 6-7.8 0-5.2-4.1-7.8-10.8-7.8h-10v28.9h6v-12h2.9l6.7 12h6.9zm-8-20.6c0 2.5-1.8 4.4-5.6 4.4h-2.9V9.8h3.4c3.8 0 5.1 1.9 5.1 4.1zm-18.2 20.6c-.1-9.5-.8-19.4-2-28.9h-8.6l-7.1 20.7h-.1l-7-20.7h-8.6c-1.3 9.5-2 19.7-2.1 28.9h5.5c0-7.9.5-16 1.2-23.1h.1l7.8 23.1h5.6l8-23.1c.8 7.1 1.2 15.2 1.3 23.1h6zm-38.1-8.8c0-3.8-2.7-6.3-6.1-6.9 2.5-1 4.2-3.2 4.2-6.1 0-4.9-3.8-7.3-10.4-7.3h-9.3v28.9h9.8c6.4.2 11.8-2.4 11.8-8.6zm-7.8-12.2c0 2.3-1.2 4-4.3 4h-3.7V9.7h3.2c3.3.1 4.8 1.4 4.8 3.8zm1.6 12.5c0 2.7-2.2 4.1-5 4.1h-4.6v-8.4h3.7c4.1 0 5.9 1.6 5.9 4.3zM102 13.5c0 2.3-1.2 4-4.3 4H94V9.7h3.2c3.3.1 4.8 1.4 4.8 3.8zm1.6 12.5c0 2.7-2.2 4.1-5 4.1h-4.5v-8.4h3.7c3.9 0 5.8 1.6 5.8 4.3zM41.2 12.4l-7.4 16.3h-1.3l7.4-16.3h1.3zM30.9 78.3h.2l5.3-16.9h1.3l-5.4 17.2c1.1.5 1.9 1.7 1.9 3 0 1.8-1.5 3.3-3.3 3.3-1.8 0-3.3-1.5-3.3-3.3s1.5-3.3 3.3-3.3zm36.2-21.2c1.8 0 3.3 1.5 3.3 3.3s-1.5 3.3-3.3 3.3-3.3-1.5-3.3-3.3c0-1 .5-1.9 1.2-2.5l-6.3-12.6h1.4l6 12c.3-.1.6-.2 1-.2zm-.8-42.4c4.2 0 7.6 3.4 7.6 7.6s-3.4 7.6-7.6 7.6c-.9 0-1.7-.1-2.5-.4L60 39.3h-1.3l4-10.3c-2.4-1.3-4-3.8-4-6.7 0-4.2 3.4-7.6 7.6-7.6zM7 43.2c1.4 0 2.7.7 3.5 1.7l17.1-10.6v1.4L11.1 45.9c.2.5.4 1.1.4 1.8 0 2.5-2 4.5-4.5 4.5s-4.5-2-4.5-4.5c-.1-2.5 2-4.5 4.5-4.5zM5.9 16c3.3 0 6 2.7 6 6 0 .7-.1 1.3-.3 1.9l16.1 6.5v1.3L11.1 25c-1 1.8-2.9 2.9-5.1 2.9-3.3 0-6-2.7-6-6-.1-3.2 2.6-5.9 5.9-5.9zm27.4 20.4l4.6 13.5h-1.4l-4.6-13.5h1.4zm2-3v1.3L55.2 42v-1.3l-19.9-7.3z"/><path class="st0" d="M55.3 39.3h5.9v5.9h-5.9v-5.9zM37.3 0h12.4v12.4H37.3V0zm-9.7 28.7h7.7v7.7h-7.7v-7.7zm5.8 21.1H45v11.6H33.4V49.8z"/></svg>