<?xml version="1.0" encoding="utf-8"?>
<!-- Generator: Adobe Illustrator 22.0.1, SVG Export Plug-In . SVG Version: 6.00 Build 0)  -->
<svg version="1.1" id="Warstwa_1" xmlns="http://www.w3.org/2000/svg" xmlns:xlink="http://www.w3.org/1999/xlink" x="0px" y="0px"
	 viewBox="0 0 78 78" style="enable-background:new 0 0 78 78;" xml:space="preserve">
<g>
	<path d="M39,0C17.5,0,0,17.5,0,39s17.5,39,39,39c21.5,0,39-17.5,39-39S60.5,0,39,0z M39,74.4C19.4,74.4,3.5,58.5,3.5,39
		S19.4,3.5,39,3.5c19.5,0,35.4,15.9,35.4,35.4S58.5,74.4,39,74.4z"/>
	<path d="M55.7,43.7c-1.2-1.3-3.1-1.5-4.5-0.6c-0.1,0-0.1,0.1-0.2,0.1l-4.4,3.3l-0.9,0.7c0,0,0,0,0,0c-0.6,0.4-1.4,0-1.4-0.7v-7
		V21.3c0-2-1.6-3.5-3.5-3.5h-3.5c-2,0-3.5,1.6-3.5,3.5v18.2v7c0,0.7-0.8,1.1-1.4,0.7c0,0,0,0,0,0h0l-0.9-0.7l-4.4-3.3h0
		c-1.6-1.2-3.8-0.9-5,0.7c-0.4,0.6-0.7,1.3-0.7,1.9c0,0.3,0,0.6,0.1,0.8c0.2,0.8,0.6,1.6,1.4,2.2l14.2,10.6c0.6,0.5,1.4,0.7,2.1,0.7
		s1.5-0.2,2.1-0.7l14.2-10.6c0.2-0.2,0.5-0.4,0.6-0.6c0.4-0.5,0.6-1,0.7-1.5c0.1-0.3,0.1-0.6,0.1-0.8c0-0.7-0.3-1.4-0.7-1.9
		C55.9,43.8,55.8,43.8,55.7,43.7z"/>
</g>
</svg>
