<?xml version="1.0" encoding="utf-8"?>
<!-- Generator: Adobe Illustrator 22.0.1, SVG Export Plug-In . SVG Version: 6.00 Build 0)  -->
<svg version="1.1" id="Warstwa_1" xmlns="http://www.w3.org/2000/svg" xmlns:xlink="http://www.w3.org/1999/xlink" x="0px" y="0px"
	 viewBox="0 0 78 78" style="enable-background:new 0 0 78 78;" xml:space="preserve">
<g>
	<path d="M39,3.5c19.5,0,35.4,15.9,35.4,35.4S58.5,74.4,39,74.4C19.4,74.4,3.5,58.5,3.5,39S19.4,3.5,39,3.5 M39,0
		C17.5,0,0,17.5,0,39s17.5,39,39,39c21.5,0,39-17.5,39-39S60.5,0,39,0L39,0z"/>
	<g>
		<path d="M43.9,35.5c-0.8-0.1-1.4-0.7-1.4-1.5c0-0.6,0.3-1.1,0.9-1.4c3.4-1.7,5.7-5.5,5.3-9.7c-0.4-4.5-4.1-8.2-8.6-8.7
			c-5.9-0.7-10.9,3.9-10.9,9.7c0,3.8,2.2,7.1,5.4,8.7c0.5,0.3,0.8,0.8,0.8,1.4c0,0.8-0.6,1.5-1.4,1.5C25,36.2,17.8,43.8,17.7,53
			c0,0,0,0.1,0,0.1c0,0,0,0,0,0.1c0,1.6,1.1,3,2.6,3.4c0.1,0,0.2,0,0.2,0.1c0,0,0,0,0,0c0.1,0,0.2,0,0.3,0.1c0,0,0,0,0,0
			c0.1,0,0.2,0,0.3,0c0,0,0,0,0.1,0h0H23v0h23l0,0c2,0,3.5-1.6,3.5-3.5s-1.6-3.5-3.5-3.5H30.1c-1,0-1.8-0.8-1.8-1.8s0.8-1.8,1.8-1.8
			h12.4h3.5c3.7,0,6.7,2.8,7,6.4c0,0,0,0.1,0,0.1c0,0.1,0,0.2,0,0.2c0,0.1,0,0.3,0,0.4c0,1.6,1.1,3,2.6,3.4c0,0,0,0,0,0
			c0.1,0,0.2,0,0.2,0.1c0.1,0,0.1,0,0.2,0c0.1,0,0.1,0,0.2,0c0,0,0.1,0,0.1,0c0,0,0.1,0,0.1,0c0,0,0.1,0,0.1,0c0,0,0.1,0,0.1,0
			c0.1,0,0.1,0,0.2,0c0.1,0,0.1,0,0.2,0c0.1,0,0.1,0,0.2,0c0.1,0,0.1,0,0.2,0c0.1,0,0.1,0,0.2,0c0.1,0,0.1,0,0.2-0.1
			c0.1,0,0.1,0,0.2-0.1c0.1,0,0.1,0,0.2-0.1c0.1,0,0.1,0,0.2-0.1c0.1,0,0.1-0.1,0.2-0.1c0,0,0.1-0.1,0.1-0.1c0,0,0.1-0.1,0.1-0.1
			c0,0,0.1-0.1,0.1-0.1c0,0,0.1-0.1,0.1-0.1c0,0,0.1-0.1,0.1-0.1c0,0,0.1-0.1,0.1-0.1c0,0,0.1-0.1,0.1-0.1c0,0,0.1-0.1,0.1-0.1
			c0,0,0.1-0.1,0.1-0.1c0-0.1,0.1-0.1,0.1-0.2c0,0,0.1-0.1,0.1-0.1c0-0.1,0.1-0.1,0.1-0.2c0,0,0-0.1,0.1-0.1c0-0.1,0.1-0.1,0.1-0.2
			c0,0,0-0.1,0-0.1c0-0.1,0-0.1,0.1-0.2c0,0,0-0.1,0-0.1c0-0.1,0-0.2,0-0.3c0,0,0-0.1,0-0.1c0-0.1,0-0.2,0-0.4c0,0,0,0,0,0
			C60.2,43.8,53,36.2,43.9,35.5z"/>
	</g>
</g>
</svg>
