<?xml version="1.0" encoding="utf-8"?>
<!-- Generator: Adobe Illustrator 22.0.1, SVG Export Plug-In . SVG Version: 6.00 Build 0)  -->
<svg version="1.1" id="Tryb_izolacji" xmlns="http://www.w3.org/2000/svg" xmlns:xlink="http://www.w3.org/1999/xlink" x="0px"
	 y="0px" viewBox="0 0 28.3 28.3" style="enable-background:new 0 0 28.3 28.3;" xml:space="preserve">
<g>
	<path d="M14.2,1.3c7.1,0,12.9,5.8,12.9,12.9s-5.8,12.9-12.9,12.9S1.3,21.3,1.3,14.2S7.1,1.3,14.2,1.3 M14.2,0C6.4,0,0,6.4,0,14.2
		s6.4,14.2,14.2,14.2S28.3,22,28.3,14.2S22,0,14.2,0L14.2,0z"/>
	<path d="M16.5,12.8c-0.2-0.1-0.3-0.3-0.3-0.6v-4c0-0.2,0.1-0.5,0.3-0.6c0.2-0.1,0.4-0.4,0.3-0.7c-0.1-0.3-0.3-0.5-0.6-0.5h-3.8
		c-0.3,0-0.6,0.2-0.6,0.5c-0.1,0.3,0.1,0.6,0.3,0.7c0.2,0.1,0.3,0.3,0.3,0.6v4c0,0.2-0.1,0.5-0.3,0.6c-1.7,0.9-2.8,2.8-2.5,4.9
		c0.3,2.2,2,4,4.2,4.2c2.9,0.3,5.4-2,5.4-4.8C19,15.2,18,13.6,16.5,12.8z M14.2,14.8c-1.2,0-2.3,1-2.3,2.3c0,0.4-0.3,0.6-0.6,0.6
		s-0.6-0.3-0.6-0.6c0-2,1.6-3.5,3.5-3.5c0.4,0,0.6,0.3,0.6,0.6C14.8,14.5,14.5,14.8,14.2,14.8z"/>
</g>
</svg>
