<?xml version="1.0" encoding="utf-8"?>
<!-- Generator: Adobe Illustrator 22.0.1, SVG Export Plug-In . SVG Version: 6.00 Build 0)  -->
<svg version="1.1" id="Warstwa_1" xmlns="http://www.w3.org/2000/svg" xmlns:xlink="http://www.w3.org/1999/xlink" x="0px" y="0px"
	 viewBox="0 0 78 78" style="enable-background:new 0 0 78 78;" xml:space="preserve">
<g>
	<path d="M39,0C17.5,0,0,17.5,0,39c0,21.5,17.5,39,39,39c21.5,0,39-17.5,39-39C78,17.5,60.5,0,39,0z M39,74.4
		C19.4,74.4,3.5,58.5,3.5,39C3.5,19.4,19.4,3.5,39,3.5c19.5,0,35.4,15.9,35.4,35.4C74.4,58.5,58.5,74.4,39,74.4z"/>
	<path d="M39,15.9c-12.7,0-23,10.3-23,23c0,12.7,10.3,23,23,23c12.7,0,23-10.3,23-23C62,26.3,51.7,15.9,39,15.9z M24.8,40.7h-3.5
		c-1,0-1.8-0.8-1.8-1.8s0.8-1.8,1.8-1.8h3.5c1,0,1.8,0.8,1.8,1.8S25.8,40.7,24.8,40.7z M40.7,56.7c0,1-0.8,1.8-1.8,1.8
		s-1.8-0.8-1.8-1.8v-3.5c0-1,0.8-1.8,1.8-1.8s1.8,0.8,1.8,1.8V56.7z M50.6,34.3l-10.8,6.2c0,0,0,0-0.1,0c-0.1,0.1-0.2,0.1-0.3,0.1
		c0,0-0.1,0-0.1,0c-0.1,0-0.3,0.1-0.4,0.1c0,0,0,0,0,0c0,0,0,0,0,0c0,0,0,0,0,0c-0.1,0-0.3,0-0.4-0.1c0,0-0.1,0-0.1,0
		c-0.1,0-0.2-0.1-0.3-0.1c0,0-0.1,0-0.1-0.1c-0.1-0.1-0.2-0.1-0.3-0.2c0,0,0,0,0,0c-0.1-0.1-0.2-0.2-0.3-0.3c0,0,0,0,0,0
		c0,0,0-0.1,0-0.1c0-0.1-0.1-0.1-0.1-0.2c0-0.1,0-0.1-0.1-0.2c0-0.1,0-0.1,0-0.2c0-0.1,0-0.1,0-0.2c0,0,0-0.1,0-0.1V21.3
		c0-1.1,1-1.9,2.1-1.7c0.9,0.1,1.5,1,1.5,1.8v13c0,0.7,0.7,1.1,1.3,0.8l6.9-4c0.9-0.5,2.1-0.1,2.5,0.9
		C51.8,32.9,51.4,33.9,50.6,34.3z M58.5,39c0,1-0.8,1.8-1.8,1.8h-3.5c-1,0-1.8-0.8-1.8-1.8s0.8-1.8,1.8-1.8h3.5
		C57.7,37.2,58.5,38,58.5,39z"/>
</g>
</svg>
