<?xml version="1.0" encoding="utf-8"?>
<!-- Generator: Adobe Illustrator 22.0.1, SVG Export Plug-In . SVG Version: 6.00 Build 0)  -->
<svg version="1.1" id="Warstwa_1" xmlns="http://www.w3.org/2000/svg" xmlns:xlink="http://www.w3.org/1999/xlink" x="0px" y="0px"
	 viewBox="0 0 78 78" style="enable-background:new 0 0 78 78;" xml:space="preserve">
<g>
	<path d="M39,0C17.5,0,0,17.5,0,39s17.5,39,39,39c21.5,0,39-17.5,39-39S60.5,0,39,0z M39,74.4C19.4,74.4,3.5,58.5,3.5,39
		S19.4,3.5,39,3.5c19.5,0,35.4,15.9,35.4,35.4S58.5,74.4,39,74.4z"/>
</g>
<path d="M54.9,60.2H23c-1,0-1.8-0.8-1.8-1.8v0c0-1,0.8-1.8,1.8-1.8h31.9c1,0,1.8,0.8,1.8,1.8v0C56.7,59.4,55.9,60.2,54.9,60.2z"/>
<path d="M39,14.2c-7.8,0-14.2,6.3-14.2,14.2c0,14.2,12.4,24.8,14.2,24.8s14.2-10.6,14.2-24.8C53.1,20.5,46.8,14.2,39,14.2z M39,35.4
	c-3.9,0-7.1-3.2-7.1-7.1c0-3.9,3.2-7.1,7.1-7.1s7.1,3.2,7.1,7.1C46.1,32.3,42.9,35.4,39,35.4z"/>
</svg>
