<?xml version="1.0" encoding="utf-8"?>
<!-- Generator: Adobe Illustrator 22.0.1, SVG Export Plug-In . SVG Version: 6.00 Build 0)  -->
<svg version="1.1" id="Warstwa_1" xmlns="http://www.w3.org/2000/svg" xmlns:xlink="http://www.w3.org/1999/xlink" x="0px" y="0px"
	 viewBox="0 0 78 78" style="enable-background:new 0 0 78 78;" xml:space="preserve">
<g>
	<path d="M39,3.5c19.5,0,35.4,15.9,35.4,35.4S58.5,74.4,39,74.4S3.5,58.5,3.5,39S19.4,3.5,39,3.5 M39,0C17.5,0,0,17.5,0,39
		s17.5,39,39,39s39-17.5,39-39S60.5,0,39,0L39,0z"/>
	<path d="M51.4,17.7H26.6c-2.9,0-5.3,2.4-5.3,5.3v31.9c0,2.9,2.4,5.3,5.3,5.3h24.8c2.9,0,5.3-2.4,5.3-5.3V23
		C56.7,20.1,54.3,17.7,51.4,17.7z M39,28.3c0,1-0.8,1.8-1.8,1.8h-5.3h-1.8c-1,0-1.8-0.8-1.8-1.8s0.8-1.8,1.8-1.8h7.1
		C38.2,26.6,39,27.4,39,28.3C39,28.3,39,28.3,39,28.3z M30.1,33.7h1.8h14.2h1.8c1,0,1.8,0.8,1.8,1.8c0,1-0.8,1.8-1.8,1.8h-1.8H31.9
		h-1.8c-1,0-1.8-0.8-1.8-1.8C28.3,34.5,29.1,33.7,30.1,33.7z M40.7,44.3c-1,0-1.8-0.8-1.8-1.8c0-1,0.8-1.8,1.8-1.8h5.3h1.8
		c1,0,1.8,0.8,1.8,1.8c0,1-0.8,1.8-1.8,1.8h-1.8H40.7z M30.1,40.7h1.8h1.8c1,0,1.8,0.8,1.8,1.8c0,1-0.8,1.8-1.8,1.8h-1.8h-1.8
		c-1,0-1.8-0.8-1.8-1.8C28.3,41.5,29.1,40.7,30.1,40.7z M30.1,47.8h1.8h8.9c1,0,1.8,0.8,1.8,1.8l0,0c0,1-0.8,1.8-1.8,1.8H30.1
		c-1,0-1.8-0.8-1.8-1.8S29.1,47.8,30.1,47.8z M47.8,30.1h-1.8h-1.8c-1,0-1.8-0.8-1.8-1.8c0,0,0,0,0,0c0-1,0.8-1.8,1.8-1.8h3.5
		c1,0,1.8,0.8,1.8,1.8S48.8,30.1,47.8,30.1z"/>
</g>
</svg>
