<?xml version="1.0" encoding="utf-8"?>
<!-- Generator: Adobe Illustrator 22.0.1, SVG Export Plug-In . SVG Version: 6.00 Build 0)  -->
<svg version="1.1" id="Warstwa_1" xmlns="http://www.w3.org/2000/svg" xmlns:xlink="http://www.w3.org/1999/xlink" x="0px" y="0px"
	 viewBox="0 0 31.2 26" style="enable-background:new 0 0 31.2 26;" xml:space="preserve">
<g>
	<path d="M28.6,0h-26C1.2,0,0,1.2,0,2.6c0,0.3,0.3,0.8,0.5,1L2.6,5l2.6,1.8l3.9,2.7l6.2,4.3c0.1,0.1,0.5,0.1,0.7,0l7.5-5.2L26,6.8
		L28.6,5l2.1-1.4c0.2-0.2,0.5-0.7,0.5-1C31.2,1.2,30,0,28.6,0z"/>
	<path d="M26,10l-8.6,5.9c-0.5,0.4-1.2,0.5-1.8,0.5c-0.6,0-1.3-0.2-1.8-0.5L5.2,10L2.6,8.2L0,6.4v13.2l2.6-1.8L5.2,16l1.2-0.8
		c0.6-0.4,1.4-0.3,1.8,0.3c0.4,0.6,0.3,1.4-0.3,1.8l-2.7,1.9L2.6,21l-2.1,1.4c-0.2,0.2-0.5,0.7-0.5,1C0,24.8,1.2,26,2.6,26h26
		c1.4,0,2.6-1.2,2.6-2.6c0-0.3-0.3-0.8-0.5-1L28.6,21L26,19.2l-2.7-1.9c-0.6-0.4-0.7-1.2-0.3-1.8c0.4-0.6,1.2-0.7,1.8-0.3L26,16
		l2.6,1.8l2.6,1.8V6.4l-2.6,1.8L26,10z"/>
</g>
</svg>
