<?xml version="1.0" encoding="utf-8"?>
<!-- Generator: Adobe Illustrator 22.0.1, SVG Export Plug-In . SVG Version: 6.00 Build 0)  -->
<svg version="1.1" id="Warstwa_1" xmlns="http://www.w3.org/2000/svg" xmlns:xlink="http://www.w3.org/1999/xlink" x="0px" y="0px"
	 viewBox="0 0 78 78" style="enable-background:new 0 0 78 78;" xml:space="preserve">
<g>
	<path d="M39,3.5c19.5,0,35.4,15.9,35.4,35.4S58.5,74.4,39,74.4C19.4,74.4,3.5,58.5,3.5,39S19.4,3.5,39,3.5 M39,0
		C17.5,0,0,17.5,0,39s17.5,39,39,39c21.5,0,39-17.5,39-39S60.5,0,39,0L39,0z"/>
	<path d="M56.7,21.3H21.3c-2,0-3.5,1.6-3.5,3.5c0,0.4,0.4,1.1,0.7,1.3l2.8,2l3.5,2.5l5.3,3.7l8.4,5.8c0.2,0.1,0.7,0.1,0.9,0
		l10.3-7.1l3.5-2.4l3.5-2.5l2.8-2c0.3-0.2,0.7-0.9,0.7-1.3C60.2,22.8,58.6,21.3,56.7,21.3z"/>
	<path d="M53.1,34.9L41.4,43c-0.7,0.5-1.6,0.7-2.5,0.7c-0.9,0-1.8-0.2-2.5-0.7l-11.7-8.1l-3.5-2.5L17.7,30v18l3.5-2.5l3.5-2.5
		l1.6-1.1c0.8-0.6,1.9-0.4,2.5,0.4c0.6,0.8,0.4,1.9-0.4,2.5l-3.7,2.5l-3.5,2.5l-2.8,2c-0.3,0.2-0.7,0.9-0.7,1.3c0,2,1.6,3.5,3.5,3.5
		h35.4c2,0,3.5-1.6,3.5-3.5c0-0.4-0.4-1.1-0.7-1.3l-2.8-2l-3.5-2.5l-3.7-2.5c-0.8-0.6-1-1.7-0.4-2.5c0.6-0.8,1.7-1,2.5-0.4l1.6,1.1
		l3.5,2.5l3.5,2.5V30l-3.5,2.5L53.1,34.9z"/>
</g>
</svg>
