<?xml version="1.0" encoding="utf-8"?>
<!-- Generator: Adobe Illustrator 22.0.1, SVG Export Plug-In . SVG Version: 6.00 Build 0)  -->
<svg version="1.1" id="Tryb_izolacji" xmlns="http://www.w3.org/2000/svg" xmlns:xlink="http://www.w3.org/1999/xlink" x="0px"
	 y="0px" viewBox="0 0 28.3 28.3" style="enable-background:new 0 0 28.3 28.3;" xml:space="preserve">
<g>
	<path d="M14.2,1.3c7.1,0,12.9,5.8,12.9,12.9s-5.8,12.9-12.9,12.9S1.3,21.3,1.3,14.2S7.1,1.3,14.2,1.3 M14.2,0C6.4,0,0,6.4,0,14.2
		s6.4,14.2,14.2,14.2S28.3,22,28.3,14.2S22,0,14.2,0L14.2,0z"/>
	<path d="M18.6,16.1c-0.2-0.2-0.2-0.5-0.1-0.8c0.6-1,0.9-2.2,0.8-3.4c-0.1-3.3-2.8-5.9-6-6.1c-3.9-0.2-7.1,3-6.8,6.8
		c0.2,3.3,2.9,5.9,6.1,6c1.2,0.1,2.4-0.2,3.4-0.8c0.3-0.1,0.6-0.1,0.8,0.1l2.9,2.9c0.3,0.3,0.6,0.4,0.9,0.4c0.3,0,0.7-0.1,0.9-0.4
		c0.5-0.5,0.5-1.3,0-1.8L18.6,16.1z M10.2,15.9C10,16,9.9,16.1,9.7,16.1c-0.2,0-0.3-0.1-0.5-0.2c-1-1-1.5-2.3-1.5-3.6
		c0-1.4,0.5-2.7,1.5-3.6s2.3-1.5,3.6-1.5c0.4,0,0.6,0.3,0.6,0.6s-0.3,0.6-0.6,0.6c-1,0-2,0.4-2.7,1.1C9.4,10.2,9,11.2,9,12.2
		c0,1,0.4,2,1.1,2.7C10.4,15.2,10.4,15.6,10.2,15.9z M16.5,15.9c-1,1-2.3,1.5-3.6,1.5c-0.4,0-0.6-0.3-0.6-0.6c0-0.4,0.3-0.6,0.6-0.6
		c1,0,2-0.4,2.7-1.1c0.7-0.7,1.1-1.7,1.1-2.7c0-0.4,0.3-0.6,0.6-0.6s0.6,0.3,0.6,0.6C18,13.6,17.5,14.9,16.5,15.9z"/>
</g>
</svg>
