<?xml version="1.0" encoding="utf-8"?>
<!-- Generator: Adobe Illustrator 22.0.1, SVG Export Plug-In . SVG Version: 6.00 Build 0)  -->
<svg version="1.1" id="Warstwa_1" xmlns="http://www.w3.org/2000/svg" xmlns:xlink="http://www.w3.org/1999/xlink" x="0px" y="0px"
	 viewBox="0 0 78 78" style="enable-background:new 0 0 78 78;" xml:space="preserve">
<g>
	<path d="M39,0C17.5,0,0,17.5,0,39s17.5,39,39,39c21.5,0,39-17.5,39-39S60.5,0,39,0z M39,74.4C19.4,74.4,3.5,58.5,3.5,39
		S19.4,3.5,39,3.5c19.5,0,35.4,15.9,35.4,35.4S58.5,74.4,39,74.4z"/>
	<path d="M39,19.5c-10.1,0-17.7,3.7-17.7,7.1v3.5c0,0.8,0.4,1.5,1.1,2.3c0,0,0,0.1,0.1,0.1c0.6,0.7,0.6,1.6,0,2.3c0,0,0,0.1-0.1,0.1
		l0,0c-0.8,0.8-1.1,1.6-1.1,2.3v3.5c0,0.8,0.4,1.5,1.1,2.3l0,0c0,0,0,0.1,0.1,0.1c0.6,0.7,0.6,1.6,0,2.3c0,0,0,0.1-0.1,0.1
		c-0.8,0.8-1.1,1.6-1.1,2.3v3.5c0,3.3,7.6,7.1,17.7,7.1s17.7-3.7,17.7-7.1v-3.5c0-0.3-0.1-0.6-0.2-0.9c-0.2,0.2-0.4,0.3-0.7,0.4
		c0,0-0.1,0-0.1,0.1c-0.3,0.2-0.6,0.4-0.9,0.5c-0.1,0-0.2,0.1-0.3,0.1c-0.2,0.1-0.4,0.2-0.7,0.3c-0.1,0.1-0.2,0.1-0.4,0.2
		c-0.2,0.1-0.4,0.2-0.7,0.3c-0.1,0.1-0.3,0.1-0.4,0.2c-0.2,0.1-0.5,0.2-0.7,0.3c-0.1,0.1-0.3,0.1-0.4,0.2c-0.2,0.1-0.5,0.2-0.7,0.2
		c-0.1,0-0.3,0.1-0.4,0.1c-0.3,0.1-0.6,0.2-0.9,0.3c-0.1,0-0.2,0.1-0.3,0.1c-0.4,0.1-0.8,0.2-1.2,0.3c-0.1,0-0.2,0-0.3,0.1
		c-0.3,0.1-0.7,0.1-1,0.2c-0.1,0-0.3,0.1-0.5,0.1c-0.3,0-0.6,0.1-0.9,0.1c-0.2,0-0.3,0-0.5,0.1c-0.3,0-0.6,0.1-0.9,0.1
		c-0.2,0-0.4,0-0.5,0.1c-0.3,0-0.6,0.1-0.9,0.1c-0.2,0-0.4,0-0.5,0c-0.3,0-0.6,0-1,0c-0.2,0-0.3,0-0.5,0c-0.5,0-1,0-1.5,0
		c-1,0-1.8-0.8-1.8-1.8c0,0,0,0,0,0c0-1,0.8-1.7,1.8-1.7c7.1,0,13.7-1.9,16.5-4.7c0,0,0.1,0,0.1-0.1c0.8-0.8,1.1-1.6,1.1-2.3v-3.5
		c0-0.3-0.1-0.6-0.2-0.9c-2.2,1.6-5.3,2.9-8.9,3.6c-2.6,0.6-5.5,0.9-8.6,0.9c-1,0-1.7-0.8-1.8-1.7c0,0,0,0,0,0s0,0,0,0
		c0-1,0.8-1.7,1.8-1.7c7.1,0,13.7-1.9,16.5-4.7c0,0,0.1,0,0.1-0.1c0.8-0.8,1.1-1.6,1.1-2.3v-3.5C56.7,23.2,49.1,19.5,39,19.5z"/>
</g>
</svg>
