<?xml version="1.0" encoding="utf-8"?>
<!-- Generator: Adobe Illustrator 22.0.1, SVG Export Plug-In . SVG Version: 6.00 Build 0)  -->
<svg version="1.1" id="Tryb_izolacji" xmlns="http://www.w3.org/2000/svg" xmlns:xlink="http://www.w3.org/1999/xlink" x="0px"
	 y="0px" viewBox="0 0 339.1 304.1" style="enable-background:new 0 0 339.1 304.1;" xml:space="preserve">
<g>
	<g>
		<path d="M112.5,0c-0.1,18.9-14.6,33.4-33.1,33.4C61.2,33.4,46.7,18.9,46.6,0H0c0,42.6,31.5,77,79.4,77c48.2,0,79.7-34.4,79.7-77
			H112.5z"/>
	</g>
	<g>
		<path d="M208.8,105.1h107.1c12.8,0,23.2,10.4,23.2,23.2l0,0c0,12.8-10.4,23.2-23.2,23.2h-66.2c-9,0-16.3,7.3-16.3,16.3l0,0
			c0,9,7.3,16.3,16.3,16.3h56.1c12.6,0,22.9,10.2,22.9,22.9l0,0c0,12.6-10.2,22.9-22.9,22.9h-54.4c-9,0-16.3,7.3-16.3,16.3v33.3
			c0,13.7-11.1,24.7-24.7,24.7l0,0c-13.7,0-24.7-11.1-24.7-24.7V128.2C185.7,115.4,196.1,105.1,208.8,105.1z"/>
	</g>
</g>
</svg>
