<?xml version="1.0" encoding="utf-8"?>
<!-- Generator: Adobe Illustrator 22.0.1, SVG Export Plug-In . SVG Version: 6.00 Build 0)  -->
<svg version="1.1" id="Tryb_izolacji" xmlns="http://www.w3.org/2000/svg" xmlns:xlink="http://www.w3.org/1999/xlink" x="0px"
	 y="0px" viewBox="0 0 28.3 28.3" style="enable-background:new 0 0 28.3 28.3;" xml:space="preserve">
<g>
	<path d="M14.2,1.3c7.1,0,12.9,5.8,12.9,12.9s-5.8,12.9-12.9,12.9S1.3,21.3,1.3,14.2S7.1,1.3,14.2,1.3 M14.2,0C6.4,0,0,6.4,0,14.2
		s6.4,14.2,14.2,14.2S28.3,22,28.3,14.2S22,0,14.2,0L14.2,0z"/>
	<path d="M20,7.7L20,7.7c-0.7,0-1.3,0.6-1.3,1.3v9.7c0,0.4-0.3,0.6-0.6,0.6s-0.6-0.3-0.6-0.6v-5.8c0-0.7-0.6-1.3-1.3-1.3
		c-0.7,0-1.3,0.6-1.3,1.3v5.8c0,0.4-0.3,0.6-0.6,0.6s-0.6-0.3-0.6-0.6V6.4c0-0.7-0.6-1.3-1.3-1.3S11,5.7,11,6.4v12.2
		c0,0.4-0.3,0.6-0.6,0.6c-0.4,0-0.6-0.3-0.6-0.6v-1.9c0-0.7-0.6-1.3-1.3-1.3c-0.7,0-1.3,0.6-1.3,1.3v2.6c0,0.7,0.6,1.3,1.3,1.3H20
		c0.7,0,1.3-0.6,1.3-1.3V9C21.3,8.3,20.7,7.7,20,7.7z"/>
</g>
</svg>
