<?xml version="1.0" encoding="utf-8"?>
<!-- Generator: Adobe Illustrator 22.0.1, SVG Export Plug-In . SVG Version: 6.00 Build 0)  -->
<svg version="1.1" id="Warstwa_3_xA0_Obraz_1_" xmlns="http://www.w3.org/2000/svg" xmlns:xlink="http://www.w3.org/1999/xlink"
	 x="0px" y="0px" viewBox="0 0 255.1 110" style="enable-background:new 0 0 255.1 110;" xml:space="preserve">
<style type="text/css">
	.st0{fill:#1574FF;}
</style>
<g>
	<g>
		<path class="st0" d="M88.2,55.9c0.4,0.1,1.1,0.1,1.9,0.1c1.6,0,2.7-0.3,3.3-1c0.5-0.5,0.8-1.2,0.8-2.1c0-1.6-1.1-2.4-2-2.7l0,0
			c1-0.4,1.6-1.3,1.6-2.3c0-0.8-0.3-1.5-0.8-1.9c-0.6-0.5-1.4-0.8-2.6-0.8c-0.9,0-1.7,0.1-2.3,0.2v10.5H88.2z M89.5,46.4
			c0.2,0,0.5-0.1,1.1-0.1c1.3,0,2.1,0.5,2.1,1.7c0,1-0.8,1.8-2.1,1.8h-1.1V46.4L89.5,46.4z M89.5,50.9h1c1.4,0,2.5,0.6,2.5,2
			c0,1.5-1.2,2.1-2.5,2.1c-0.4,0-0.8,0-1-0.1V50.9L89.5,50.9z M97.2,56v-7.6h-1.3V56H97.2L97.2,56z M96.6,45.3
			c-0.5,0-0.8,0.4-0.8,0.9s0.3,0.9,0.8,0.9s0.8-0.4,0.8-0.9C97.4,45.7,97.1,45.3,96.6,45.3L96.6,45.3z M102.2,48.2
			c-1.9,0-3.4,1.5-3.4,4c0,2.4,1.4,3.9,3.3,3.9c1.7,0,3.4-1.2,3.4-4C105.6,49.8,104.2,48.2,102.2,48.2L102.2,48.2z M102.2,49.2
			c1.5,0,2.1,1.6,2.1,2.9c0,1.7-0.9,3-2.1,3c-1.2,0-2.1-1.3-2.1-2.9C100.1,50.7,100.7,49.2,102.2,49.2L102.2,49.2z M108.2,56
			l0.1-1.3l0,0c0.5,1,1.3,1.4,2.3,1.4c1.5,0,3.1-1.4,3.1-4.1c0-2.3-1.2-3.9-2.9-3.9c-1.1,0-1.9,0.6-2.4,1.4l0,0v-4.8h-1.2v9.2
			c0,0.7,0,1.4-0.1,2h1.1V56z M108.4,51.5c0-0.2,0-0.4,0.1-0.6c0.3-1.1,1.1-1.7,1.9-1.7c1.3,0,2.1,1.3,2.1,2.8
			c0,1.7-0.8,2.9-2.1,2.9c-0.9,0-1.6-0.7-1.9-1.6c0-0.2-0.1-0.3-0.1-0.5V51.5L108.4,51.5z M120.3,56c-0.1-0.5-0.1-1.2-0.1-1.8v-2.9
			c0-1.5-0.5-3.1-2.6-3.1c-0.9,0-1.7,0.3-2.3,0.7l0.3,0.9c0.5-0.3,1.2-0.6,1.8-0.6c1.4,0,1.6,1.1,1.6,1.8v0.2c-2.7,0-4.2,1-4.2,2.8
			c0,1.1,0.7,2.2,2.1,2.2c1,0,1.7-0.5,2.1-1.1l0,0l0.1,1L120.3,56L120.3,56z M119,53.4c0,0.1,0,0.3-0.1,0.4
			c-0.2,0.6-0.8,1.3-1.7,1.3c-0.6,0-1.2-0.4-1.2-1.3c0-1.5,1.6-1.7,2.9-1.7v1.3H119z M122.2,56h1.3v-4.6c0-0.2,0-0.5,0.1-0.6
			c0.2-0.8,0.9-1.4,1.7-1.4c1.2,0,1.6,1,1.6,2.3v4.4h1.3v-4.6c0-2.6-1.5-3.2-2.4-3.2c-1.1,0-1.9,0.7-2.3,1.4l0,0l-0.1-1.3h-1.1
			c0,0.6,0.1,1.3,0.1,2.1V56H122.2z M131.4,44.8h-1.2V56h1.2v-2.9l0.6-0.8l2.4,3.7h1.5l-3-4.5l2.7-3.1h-1.5l-2,2.6
			c-0.2,0.3-0.4,0.6-0.6,0.9l0,0L131.4,44.8L131.4,44.8z M138.4,56v-7.6h-1.3V56H138.4L138.4,56z M137.7,45.3
			c-0.5,0-0.8,0.4-0.8,0.9s0.3,0.9,0.8,0.9s0.8-0.4,0.8-0.9S138.2,45.3,137.7,45.3L137.7,45.3z M140.5,56h1.3v-4.6
			c0-0.2,0-0.5,0.1-0.6c0.2-0.8,0.9-1.4,1.7-1.4c1.2,0,1.6,1,1.6,2.3v4.4h1.3v-4.6c0-2.6-1.5-3.2-2.4-3.2c-1.1,0-1.9,0.7-2.3,1.4
			l0,0l-0.1-1.3h-1.1c0,0.6,0.1,1.3,0.1,2.1V56H140.5z M153.3,48.4l-0.1,1.2l0,0c-0.3-0.6-1-1.3-2.2-1.3c-1.6,0-3.1,1.5-3.1,4
			c0,2.1,1.2,3.7,2.9,3.7c1.1,0,1.8-0.6,2.2-1.3l0,0v0.9c0,1.9-0.9,2.7-2.2,2.7c-0.9,0-1.6-0.3-2-0.6l-0.3,1.1
			c0.6,0.4,1.5,0.6,2.3,0.6c0.9,0,1.8-0.2,2.5-0.9c0.7-0.7,1-1.7,1-3.5v-4.4c0-0.9,0-1.5,0.1-2.1L153.3,48.4L153.3,48.4z
			 M153.1,52.7c0,0.2,0,0.5-0.1,0.7c-0.3,0.9-1,1.4-1.7,1.4c-1.4,0-2-1.2-2-2.7c0-1.8,0.9-2.9,2.1-2.9c0.9,0,1.5,0.7,1.8,1.5
			c0.1,0.2,0.1,0.4,0.1,0.6v1.4H153.1z M164.4,56c-0.1-0.5-0.1-1.2-0.1-1.8v-2.9c0-1.5-0.5-3.1-2.6-3.1c-0.9,0-1.7,0.3-2.3,0.7
			l0.3,0.9c0.5-0.3,1.2-0.6,1.8-0.6c1.4,0,1.6,1.1,1.6,1.8v0.2c-2.7,0-4.2,1-4.2,2.8c0,1.1,0.7,2.2,2.1,2.2c1,0,1.7-0.5,2.1-1.1l0,0
			l0.1,1L164.4,56L164.4,56z M163.1,53.4c0,0.1,0,0.3-0.1,0.4c-0.2,0.6-0.8,1.3-1.7,1.3c-0.6,0-1.2-0.4-1.2-1.3
			c0-1.5,1.6-1.7,2.9-1.7v1.3H163.1z M166.3,56h1.3v-4.6c0-0.2,0-0.5,0.1-0.6c0.2-0.8,0.9-1.4,1.7-1.4c1.2,0,1.6,1,1.6,2.3v4.4h1.3
			v-4.6c0-2.6-1.5-3.2-2.4-3.2c-1.1,0-1.9,0.7-2.3,1.4l0,0l-0.1-1.3h-1.1c0,0.6,0.1,1.3,0.1,2.1V56H166.3z M179,44.8v4.6l0,0
			c-0.3-0.6-1-1.2-2.1-1.2c-1.7,0-3.1,1.6-3.1,4.1c0,2.3,1.3,3.9,3,3.9c1.1,0,2-0.6,2.4-1.5l0,0l0.1,1.3h1.1c0-0.5-0.1-1.3-0.1-2
			v-9.2L179,44.8L179,44.8z M179,52.8c0,0.2,0,0.4-0.1,0.6c-0.2,1-1,1.7-1.8,1.7c-1.4,0-2-1.3-2-2.8c0-1.7,0.8-2.9,2.1-2.9
			c0.9,0,1.6,0.7,1.8,1.6c0,0.2,0.1,0.4,0.1,0.6v1.2H179z M88.2,73.9c0.4,0.1,1.1,0.1,1.9,0.1c1.6,0,2.7-0.3,3.3-1
			c0.5-0.5,0.8-1.2,0.8-2.1c0-1.6-1.1-2.4-2-2.7l0,0c1-0.4,1.6-1.3,1.6-2.3c0-0.8-0.3-1.5-0.8-1.9c-0.6-0.5-1.4-0.8-2.6-0.8
			c-0.9,0-1.7,0.1-2.3,0.2v10.5H88.2z M89.5,64.4c0.2,0,0.5-0.1,1.1-0.1c1.3,0,2.1,0.5,2.1,1.7c0,1-0.8,1.8-2.1,1.8h-1.1V64.4
			L89.5,64.4z M89.5,68.8h1c1.4,0,2.5,0.6,2.5,2c0,1.5-1.2,2.1-2.5,2.1c-0.4,0-0.8,0-1-0.1V68.8L89.5,68.8z M97.2,73.9v-7.6h-1.3
			v7.6H97.2L97.2,73.9z M96.6,63.3c-0.5,0-0.8,0.4-0.8,0.9c0,0.5,0.3,0.9,0.8,0.9s0.8-0.4,0.8-0.9C97.4,63.7,97.1,63.3,96.6,63.3
			L96.6,63.3z M102.2,66.1c-1.9,0-3.4,1.5-3.4,4c0,2.4,1.4,3.9,3.3,3.9c1.7,0,3.4-1.2,3.4-4C105.6,67.7,104.2,66.1,102.2,66.1
			L102.2,66.1z M102.2,67.2c1.5,0,2.1,1.6,2.1,2.9c0,1.7-0.9,3-2.1,3c-1.2,0-2.1-1.3-2.1-2.9C100.1,68.7,100.7,67.2,102.2,67.2
			L102.2,67.2z M115.6,73.9h1.2l-0.6-10.6h-1.6l-1.7,5.1c-0.4,1.3-0.8,2.5-1,3.6l0,0c-0.2-1.1-0.6-2.3-1-3.6l-1.6-5.1h-1.6L107,73.9
			h1.2l0.3-4.6c0.1-1.6,0.2-3.4,0.2-4.7l0,0c0.3,1.3,0.7,2.6,1.1,4.1l1.6,5.1h0.9l1.7-5.2c0.5-1.5,0.9-2.8,1.2-4l0,0
			c0,1.3,0.1,3.1,0.1,4.6L115.6,73.9L115.6,73.9z M121.7,66.1c-1.9,0-3.4,1.5-3.4,4c0,2.4,1.4,3.9,3.3,3.9c1.7,0,3.4-1.2,3.4-4
			C125,67.7,123.7,66.1,121.7,66.1L121.7,66.1z M121.7,67.2c1.5,0,2.1,1.6,2.1,2.9c0,1.7-0.9,3-2.1,3c-1.2,0-2.1-1.3-2.1-2.9
			C119.5,68.7,120.2,67.2,121.7,67.2L121.7,67.2z M126.6,73.9h1.3V62.7h-1.3V73.9L126.6,73.9z M135.6,70.4c0-0.1,0-0.4,0-0.6
			c0-1.4-0.6-3.6-2.9-3.6c-2,0-3.2,1.8-3.2,4.1s1.3,3.8,3.4,3.8c1.1,0,1.9-0.3,2.3-0.5l-0.2-1c-0.5,0.2-1,0.4-1.9,0.4
			c-1.3,0-2.3-0.8-2.4-2.6L135.6,70.4L135.6,70.4z M130.7,69.4c0.1-1,0.7-2.3,1.9-2.3c1.4,0,1.8,1.4,1.7,2.3H130.7L130.7,69.4z
			 M141.9,72.6c-0.4,0.2-0.8,0.4-1.5,0.4c-1.4,0-2.4-1.1-2.4-2.9c0-1.6,0.9-2.9,2.4-2.9c0.7,0,1.2,0.2,1.5,0.4l0.3-1.1
			c-0.3-0.2-1-0.4-1.7-0.4c-2.3,0-3.7,1.7-3.7,4s1.4,3.9,3.4,3.9c0.9,0,1.7-0.3,2-0.4L141.9,72.6L141.9,72.6z M149.4,66.3h-1.3V71
			c0,0.3,0,0.5-0.1,0.7c-0.2,0.6-0.8,1.3-1.7,1.3c-1.1,0-1.5-1-1.5-2.4v-4.2h-1.3v4.5c0,2.7,1.3,3.3,2.4,3.3c1.2,0,2-0.8,2.3-1.4
			l0,0l0.1,1.2h1.1c0-0.6-0.1-1.3-0.1-2.1L149.4,66.3L149.4,66.3z M151.5,73.9h1.3V62.7h-1.3V73.9L151.5,73.9z M159.8,73.9
			c-0.1-0.5-0.1-1.2-0.1-1.8v-2.9c0-1.5-0.5-3.1-2.6-3.1c-0.9,0-1.7,0.3-2.3,0.7l0.3,0.9c0.5-0.3,1.2-0.6,1.8-0.6
			c1.4,0,1.6,1.1,1.6,1.8v0.2c-2.7,0-4.2,1-4.2,2.8c0,1.1,0.7,2.2,2.1,2.2c1,0,1.7-0.5,2.1-1.1l0,0l0.1,1h1.2V73.9z M158.5,71.4
			c0,0.1,0,0.3-0.1,0.4c-0.2,0.6-0.8,1.3-1.7,1.3c-0.6,0-1.2-0.4-1.2-1.3c0-1.5,1.6-1.7,2.9-1.7v1.3H158.5z M161.7,73.9h1.2v-4.1
			c0-0.2,0-0.5,0.1-0.6c0.2-1,0.8-1.8,1.7-1.8c0.2,0,0.3,0,0.4,0v-1.3c-0.1,0-0.2,0-0.4,0c-0.8,0-1.6,0.6-1.9,1.7h-0.1v-1.5h-1.1
			c0,0.7,0.1,1.5,0.1,2.4V73.9L161.7,73.9z M169.5,73.9h1.2v-4.1c0-0.2,0-0.5,0.1-0.6c0.2-1,0.8-1.8,1.7-1.8c0.2,0,0.3,0,0.4,0v-1.3
			c-0.1,0-0.2,0-0.4,0c-0.8,0-1.6,0.6-1.9,1.7h-0.1v-1.5h-1.1c0,0.7,0.1,1.5,0.1,2.4V73.9L169.5,73.9z M179.6,70.4
			c0-0.1,0-0.4,0-0.6c0-1.4-0.6-3.6-2.9-3.6c-2,0-3.2,1.8-3.2,4.1s1.3,3.8,3.4,3.8c1.1,0,1.9-0.3,2.3-0.5l-0.2-1
			c-0.5,0.2-1,0.4-1.9,0.4c-1.3,0-2.3-0.8-2.4-2.6L179.6,70.4L179.6,70.4z M174.7,69.4c0.1-1,0.7-2.3,1.9-2.3c1.4,0,1.8,1.4,1.7,2.3
			H174.7L174.7,69.4z M180.7,73.6c0.5,0.3,1.2,0.5,1.9,0.5c1.6,0,2.6-0.9,2.6-2.3c0-1.1-0.6-1.8-1.8-2.3c-0.9-0.4-1.3-0.7-1.3-1.3
			s0.4-1,1.2-1c0.6,0,1.1,0.3,1.4,0.4l0.3-1c-0.4-0.3-1-0.5-1.7-0.5c-1.5,0-2.4,1-2.4,2.2c0,0.9,0.6,1.7,1.8,2.2
			c0.9,0.4,1.3,0.7,1.3,1.4c0,0.6-0.4,1.1-1.3,1.1c-0.6,0-1.3-0.3-1.7-0.6L180.7,73.6L180.7,73.6z M189.8,66.1c-1.9,0-3.4,1.5-3.4,4
			c0,2.4,1.4,3.9,3.3,3.9c1.7,0,3.4-1.2,3.4-4C193.1,67.7,191.8,66.1,189.8,66.1L189.8,66.1z M189.7,67.2c1.5,0,2.1,1.6,2.1,2.9
			c0,1.7-0.9,3-2.1,3c-1.2,0-2.1-1.3-2.1-2.9C187.6,68.7,188.3,67.2,189.7,67.2L189.7,67.2z M200.5,66.3h-1.3V71
			c0,0.3,0,0.5-0.1,0.7c-0.2,0.6-0.8,1.3-1.7,1.3c-1.1,0-1.5-1-1.5-2.4v-4.2h-1.3v4.5c0,2.7,1.3,3.3,2.4,3.3c1.2,0,2-0.8,2.3-1.4
			l0,0l0.1,1.2h1.1c0-0.6-0.1-1.3-0.1-2.1v-5.6H200.5z M202.6,73.9h1.2v-4.1c0-0.2,0-0.5,0.1-0.6c0.2-1,0.8-1.8,1.7-1.8
			c0.2,0,0.3,0,0.4,0v-1.3c-0.1,0-0.2,0-0.4,0c-0.8,0-1.6,0.6-1.9,1.7h-0.1v-1.5h-1.1c0,0.7,0.1,1.5,0.1,2.4V73.9L202.6,73.9z
			 M211.8,72.6c-0.4,0.2-0.8,0.4-1.5,0.4c-1.4,0-2.4-1.1-2.4-2.9c0-1.6,0.9-2.9,2.4-2.9c0.7,0,1.2,0.2,1.5,0.4l0.3-1.1
			c-0.3-0.2-1-0.4-1.7-0.4c-2.3,0-3.7,1.7-3.7,4s1.4,3.9,3.4,3.9c0.9,0,1.7-0.3,2-0.4L211.8,72.6L211.8,72.6z M219,70.4
			c0-0.1,0-0.4,0-0.6c0-1.4-0.6-3.6-2.9-3.6c-2,0-3.2,1.8-3.2,4.1s1.3,3.8,3.4,3.8c1.1,0,1.9-0.3,2.3-0.5l-0.2-1
			c-0.5,0.2-1,0.4-1.9,0.4c-1.3,0-2.3-0.8-2.4-2.6L219,70.4L219,70.4z M214.2,69.4c0.1-1,0.7-2.3,1.9-2.3c1.4,0,1.8,1.4,1.7,2.3
			H214.2L214.2,69.4z M220.1,73.6c0.5,0.3,1.2,0.5,1.9,0.5c1.6,0,2.6-0.9,2.6-2.3c0-1.1-0.6-1.8-1.8-2.3c-0.9-0.4-1.3-0.7-1.3-1.3
			s0.4-1,1.2-1c0.6,0,1.1,0.3,1.4,0.4l0.3-1c-0.4-0.3-1-0.5-1.7-0.5c-1.5,0-2.4,1-2.4,2.2c0,0.9,0.6,1.7,1.8,2.2
			c0.9,0.4,1.3,0.7,1.3,1.4c0,0.6-0.4,1.1-1.3,1.1c-0.6,0-1.3-0.3-1.7-0.6L220.1,73.6L220.1,73.6z M88.2,91.9h1.2v-4.6h1.2
			c1.1,0,1.6,0.6,1.9,2.1c0.3,1.3,0.5,2.2,0.6,2.5h1.3c-0.2-0.4-0.4-1.4-0.7-2.9c-0.2-1.1-0.7-1.9-1.4-2.1l0,0
			c1-0.4,1.8-1.3,1.8-2.7c0-0.8-0.3-1.5-0.8-2c-0.6-0.6-1.5-0.9-2.8-0.9c-0.9,0-1.8,0.1-2.4,0.2L88.2,91.9L88.2,91.9z M89.5,82.4
			c0.2-0.1,0.6-0.1,1.2-0.1c1.3,0,2.2,0.6,2.2,2c0,1.2-0.8,2-2.2,2h-1.2V82.4L89.5,82.4z M101.5,88.3c0-0.1,0-0.4,0-0.6
			c0-1.4-0.6-3.6-2.9-3.6c-2,0-3.2,1.8-3.2,4.1s1.3,3.8,3.4,3.8c1.1,0,1.9-0.3,2.3-0.5l-0.2-1c-0.5,0.2-1,0.4-1.9,0.4
			c-1.3,0-2.3-0.8-2.4-2.6L101.5,88.3L101.5,88.3z M96.7,87.3c0.1-1,0.7-2.3,1.9-2.3c1.4,0,1.8,1.4,1.7,2.3H96.7L96.7,87.3z
			 M102.6,91.5c0.5,0.3,1.2,0.5,1.9,0.5c1.6,0,2.6-0.9,2.6-2.3c0-1.1-0.6-1.8-1.8-2.3c-0.9-0.4-1.3-0.7-1.3-1.3s0.4-1,1.2-1
			c0.6,0,1.1,0.3,1.4,0.4l0.3-1c-0.4-0.3-1-0.5-1.7-0.5c-1.5,0-2.4,1-2.4,2.2c0,0.9,0.6,1.7,1.8,2.2c0.9,0.4,1.3,0.7,1.3,1.4
			c0,0.6-0.4,1.1-1.3,1.1c-0.6,0-1.3-0.3-1.7-0.6L102.6,91.5L102.6,91.5z M114.4,88.3c0-0.1,0-0.4,0-0.6c0-1.4-0.6-3.6-2.9-3.6
			c-2,0-3.2,1.8-3.2,4.1s1.3,3.8,3.4,3.8c1.1,0,1.9-0.3,2.3-0.5l-0.2-1c-0.5,0.2-1,0.4-1.9,0.4c-1.3,0-2.3-0.8-2.4-2.6L114.4,88.3
			L114.4,88.3z M109.5,87.3c0.1-1,0.7-2.3,1.9-2.3c1.4,0,1.8,1.4,1.7,2.3H109.5L109.5,87.3z M121,91.9c-0.1-0.5-0.1-1.2-0.1-1.8
			v-2.9c0-1.5-0.5-3.1-2.6-3.1c-0.9,0-1.7,0.3-2.3,0.7l0.3,0.9c0.5-0.3,1.2-0.6,1.8-0.6c1.4,0,1.6,1.1,1.6,1.8v0.2
			c-2.7,0-4.2,1-4.2,2.8c0,1.1,0.7,2.2,2.1,2.2c1,0,1.7-0.5,2.1-1.1l0,0l0.1,1L121,91.9L121,91.9z M119.6,89.3c0,0.1,0,0.3-0.1,0.4
			c-0.2,0.6-0.8,1.3-1.7,1.3c-0.6,0-1.2-0.4-1.2-1.3c0-1.5,1.6-1.7,2.9-1.7v1.3H119.6z M122.9,91.9h1.2v-4.1c0-0.2,0-0.5,0.1-0.6
			c0.2-1,0.8-1.8,1.7-1.8c0.2,0,0.3,0,0.4,0v-1.3c-0.1,0-0.2,0-0.4,0c-0.8,0-1.6,0.6-1.9,1.7h-0.1v-1.5h-1.1c0,0.7,0.1,1.5,0.1,2.4
			V91.9L122.9,91.9z M132.1,90.6c-0.4,0.2-0.8,0.4-1.5,0.4c-1.4,0-2.4-1.1-2.4-2.9c0-1.6,0.9-2.9,2.4-2.9c0.7,0,1.2,0.2,1.5,0.4
			l0.3-1.1c-0.3-0.2-1-0.4-1.7-0.4c-2.3,0-3.7,1.7-3.7,4s1.4,3.9,3.4,3.9c0.9,0,1.7-0.3,2-0.4L132.1,90.6L132.1,90.6z M133.8,91.9
			h1.3v-4.6c0-0.3,0-0.5,0.1-0.7c0.2-0.8,0.9-1.4,1.7-1.4c1.2,0,1.6,1,1.6,2.3v4.4h1.3v-4.5c0-2.6-1.5-3.3-2.4-3.3
			c-0.5,0-0.9,0.2-1.3,0.4c-0.4,0.2-0.7,0.6-0.9,1l0,0v-4.8h-1.3v11.2H133.8z M144.8,81.3v10.6h1.2V81.3H144.8L144.8,81.3z
			 M148.4,91.9h1.3v-4.6c0-0.2,0-0.5,0.1-0.6c0.2-0.8,0.9-1.4,1.7-1.4c1.2,0,1.6,1,1.6,2.3V92h1.3v-4.6c0-2.6-1.5-3.2-2.4-3.2
			c-1.1,0-1.9,0.7-2.3,1.4l0,0l-0.1-1.3h-1.1c0,0.6,0.1,1.3,0.1,2.1v5.5H148.4z M157.7,91.9v-6.6h1.7v-1.1h-1.7v-0.4
			c0-1.2,0.3-2.2,1.3-2.2c0.4,0,0.6,0.1,0.8,0.2l0.2-1.1c-0.2-0.1-0.6-0.2-1.1-0.2c-0.6,0-1.2,0.2-1.7,0.7c-0.6,0.6-0.8,1.6-0.8,2.7
			v0.4h-1v1.1h1V92L157.7,91.9L157.7,91.9z M160.5,91.9h1.2v-4.1c0-0.2,0-0.5,0.1-0.6c0.2-1,0.8-1.8,1.7-1.8c0.2,0,0.3,0,0.4,0v-1.3
			c-0.1,0-0.2,0-0.4,0c-0.8,0-1.6,0.6-1.9,1.7h-0.1v-1.5h-1.1c0,0.7,0.1,1.5,0.1,2.4V91.9L160.5,91.9z M170.1,91.9
			c-0.1-0.5-0.1-1.2-0.1-1.8v-2.9c0-1.5-0.5-3.1-2.6-3.1c-0.9,0-1.7,0.3-2.3,0.7l0.3,0.9c0.5-0.3,1.2-0.6,1.8-0.6
			c1.4,0,1.6,1.1,1.6,1.8v0.2c-2.7,0-4.2,1-4.2,2.8c0,1.1,0.7,2.2,2.1,2.2c1,0,1.7-0.5,2.1-1.1l0,0l0.1,1L170.1,91.9L170.1,91.9z
			 M168.7,89.3c0,0.1,0,0.3-0.1,0.4c-0.2,0.6-0.8,1.3-1.7,1.3c-0.6,0-1.2-0.4-1.2-1.3c0-1.5,1.6-1.7,2.9-1.7v1.3H168.7z M171.5,91.5
			c0.5,0.3,1.2,0.5,1.9,0.5c1.6,0,2.6-0.9,2.6-2.3c0-1.1-0.6-1.8-1.8-2.3c-0.9-0.4-1.3-0.7-1.3-1.3s0.4-1,1.2-1
			c0.6,0,1.1,0.3,1.4,0.4l0.3-1c-0.4-0.3-1-0.5-1.7-0.5c-1.5,0-2.4,1-2.4,2.2c0,0.9,0.6,1.7,1.8,2.2c0.9,0.4,1.3,0.7,1.3,1.4
			c0,0.6-0.4,1.1-1.3,1.1c-0.6,0-1.3-0.3-1.7-0.6L171.5,91.5L171.5,91.5z M178,82.4v1.8h-1.1v1.1h1.1v4.2c0,0.9,0.1,1.6,0.5,2
			c0.3,0.4,0.8,0.6,1.4,0.6c0.5,0,0.9-0.1,1.1-0.2l-0.1-1c-0.2,0-0.4,0.1-0.7,0.1c-0.7,0-0.9-0.5-0.9-1.5v-4.1h1.8v-1.1h-1.8v-2.2
			L178,82.4L178,82.4z M182.4,91.9h1.2v-4.1c0-0.2,0-0.5,0.1-0.6c0.2-1,0.8-1.8,1.7-1.8c0.2,0,0.3,0,0.4,0v-1.3c-0.1,0-0.2,0-0.4,0
			c-0.8,0-1.6,0.6-1.9,1.7l0,0v-1.5h-1.1c0,0.7,0.1,1.5,0.1,2.4v5.2H182.4z M192.9,84.3h-1.3V89c0,0.3,0,0.5-0.1,0.7
			c-0.2,0.6-0.8,1.3-1.7,1.3c-1.1,0-1.5-1-1.5-2.4v-4.2H187v4.5c0,2.7,1.3,3.3,2.4,3.3c1.2,0,2-0.8,2.3-1.4l0,0l0.1,1.2h1.1
			c0-0.6-0.1-1.3-0.1-2.1v-5.6H192.9z M199.7,90.6c-0.4,0.2-0.8,0.4-1.5,0.4c-1.4,0-2.4-1.1-2.4-2.9c0-1.6,0.9-2.9,2.4-2.9
			c0.7,0,1.2,0.2,1.5,0.4l0.3-1.1c-0.3-0.2-1-0.4-1.7-0.4c-2.3,0-3.7,1.7-3.7,4S196,92,198,92c0.9,0,1.7-0.3,2-0.4L199.7,90.6
			L199.7,90.6z M201.9,82.4v1.8h-1.1v1.1h1.1v4.2c0,0.9,0.1,1.6,0.5,2c0.3,0.4,0.8,0.6,1.4,0.6c0.5,0,0.9-0.1,1.1-0.2l-0.1-1
			c-0.2,0-0.4,0.1-0.7,0.1c-0.7,0-0.9-0.5-0.9-1.5v-4.1h1.8v-1.1h-1.8v-2.2L201.9,82.4L201.9,82.4z M212.1,84.3h-1.3V89
			c0,0.3,0,0.5-0.1,0.7c-0.2,0.6-0.8,1.3-1.7,1.3c-1.1,0-1.5-1-1.5-2.4v-4.2h-1.3v4.5c0,2.7,1.3,3.3,2.4,3.3c1.2,0,2-0.8,2.3-1.4
			l0,0L211,92h1.1c0-0.6-0.1-1.3-0.1-2.1v-5.6H212.1z M214.2,91.9h1.2v-4.1c0-0.2,0-0.5,0.1-0.6c0.2-1,0.8-1.8,1.7-1.8
			c0.2,0,0.3,0,0.4,0v-1.3c-0.1,0-0.2,0-0.4,0c-0.8,0-1.6,0.6-1.9,1.7h-0.1v-1.5h-1.1c0,0.7,0.1,1.5,0.1,2.4L214.2,91.9L214.2,91.9z
			 M224.3,88.3c0-0.1,0-0.4,0-0.6c0-1.4-0.6-3.6-2.9-3.6c-2,0-3.2,1.8-3.2,4.1s1.3,3.8,3.4,3.8c1.1,0,1.9-0.3,2.3-0.5l-0.2-1
			c-0.5,0.2-1,0.4-1.9,0.4c-1.3,0-2.3-0.8-2.4-2.6L224.3,88.3L224.3,88.3z M219.4,87.3c0.1-1,0.7-2.3,1.9-2.3c1.4,0,1.8,1.4,1.7,2.3
			H219.4L219.4,87.3z M88.2,109.8h1.2v-4.3c0.3,0.1,0.6,0.1,1,0.1c1.2,0,2.3-0.4,2.9-1.2c0.5-0.6,0.7-1.3,0.7-2.3
			c0-0.9-0.3-1.7-0.8-2.2c-0.6-0.6-1.5-0.9-2.7-0.9c-1,0-1.8,0.1-2.4,0.2v10.6H88.2z M89.5,100.3c0.2-0.1,0.6-0.1,1.2-0.1
			c1.4,0,2.3,0.7,2.3,2.1c0,1.5-0.9,2.3-2.4,2.3c-0.4,0-0.8,0-1-0.1v-4.2H89.5z M98.4,102c-1.9,0-3.4,1.5-3.4,4
			c0,2.4,1.4,3.9,3.3,3.9c1.7,0,3.4-1.2,3.4-4C101.7,103.6,100.4,102,98.4,102L98.4,102z M98.4,103.1c1.5,0,2.1,1.6,2.1,2.9
			c0,1.7-0.9,3-2.1,3c-1.2,0-2.1-1.3-2.1-2.9C96.2,104.6,96.9,103.1,98.4,103.1L98.4,103.1z M103.3,109.8h1.3V98.6h-1.3V109.8
			L103.3,109.8z M111.7,109.8c-0.1-0.5-0.1-1.2-0.1-1.8v-2.9c0-1.5-0.5-3.1-2.6-3.1c-0.9,0-1.7,0.3-2.3,0.7l0.3,0.9
			c0.5-0.3,1.2-0.6,1.8-0.6c1.4,0,1.6,1.1,1.6,1.8v0.2c-2.7,0-4.2,1-4.2,2.8c0,1.1,0.7,2.2,2.1,2.2c1,0,1.7-0.5,2.1-1.1l0,0l0.1,1
			L111.7,109.8L111.7,109.8z M110.3,107.3c0,0.1,0,0.3-0.1,0.4c-0.2,0.6-0.8,1.3-1.7,1.3c-0.6,0-1.2-0.4-1.2-1.3
			c0-1.5,1.6-1.7,2.9-1.7v1.3H110.3z M113.6,109.8h1.3v-4.6c0-0.2,0-0.5,0.1-0.6c0.2-0.8,0.9-1.4,1.7-1.4c1.2,0,1.6,1,1.6,2.3v4.4
			h1.3v-4.6c0-2.6-1.5-3.2-2.4-3.2c-1.1,0-1.9,0.7-2.3,1.4l0,0l-0.1-1.3h-1.3c0,0.6,0.1,1.3,0.1,2.1V109.8L113.6,109.8z M126.3,98.6
			v4.6l0,0c-0.3-0.6-1-1.2-2.1-1.2c-1.7,0-3.1,1.6-3.1,4.1c0,2.3,1.3,3.9,3,3.9c1.1,0,2-0.6,2.4-1.5l0,0l0.1,1.3h1.1
			c0-0.5-0.1-1.3-0.1-2v-9.2L126.3,98.6L126.3,98.6z M126.3,106.6c0,0.2,0,0.4-0.1,0.6c-0.2,1-1,1.7-1.8,1.7c-1.4,0-2-1.3-2-2.8
			c0-1.7,0.8-2.9,2.1-2.9c0.9,0,1.6,0.7,1.8,1.6c0,0.2,0.1,0.4,0.1,0.6v1.2H126.3z"/>
		<path class="st0" d="M109.7,25.7c0-3.8-2.7-6.3-6.1-6.9c2.5-1,4.2-3.2,4.2-6.1c0-4.9-3.7-7.3-10.3-7.3h-9.3v28.9h9.7
			C104.3,34.5,109.7,31.9,109.7,25.7L109.7,25.7z M255.1,34.3v-3.8h-1.6c-1.3,0-1.8-0.7-1.8-2.1V3.2H246v26.5c0,3.9,2.3,5,5.5,5
			C252.9,34.8,254.2,34.5,255.1,34.3L255.1,34.3z M243.3,22.9c0-5.8-2.9-10.4-9.4-10.4c-3.4,0-5.8,1.3-7.9,3.4l-0.4-2.8h-4.4v29.8
			h5.8v-8.5c1.4,0.2,2.9,0.4,4.5,0.4C239.6,34.8,243.3,29.6,243.3,22.9L243.3,22.9L243.3,22.9z M237.3,23.6c0,4.6-2,7.1-6,7.1
			c-1.8,0-3.2-0.4-4.4-0.9v-9.7c2-2.2,3.7-3.2,5.8-3.2C236.2,16.9,237.3,19.8,237.3,23.6L237.3,23.6L237.3,23.6z M218.1,31.4
			c0-1.9-1.5-3.4-3.4-3.4s-3.4,1.5-3.4,3.4s1.5,3.4,3.4,3.4C216.7,34.8,218.1,33.3,218.1,31.4L218.1,31.4z M207.1,34.5v-29h-5.6
			v28.9h5.6V34.5z M198.4,34.5l-7.7-13.3c3.5-1.1,6-3.6,6-7.8c0-5.2-4.1-7.8-10.8-7.8h-10v28.9h6v-12h2.9l6.7,12L198.4,34.5
			L198.4,34.5z M190.4,13.9c0,2.5-1.8,4.4-5.6,4.4h-2.9V9.8h3.4C189.1,9.8,190.4,11.7,190.4,13.9L190.4,13.9z M172.2,34.5
			c-0.1-9.5-0.8-19.4-2-28.9h-8.6l-7.1,20.7h-0.1l-7-20.7h-8.6c-1.3,9.5-2,19.7-2.1,28.9h5.5c0-7.9,0.5-16,1.2-23.1h0.1l7.8,23.1
			h5.6l8-23.1l0,0c0.8,7.1,1.2,15.2,1.3,23.1L172.2,34.5L172.2,34.5z M134.1,25.7c0-3.8-2.7-6.3-6.1-6.9c2.5-1,4.2-3.2,4.2-6.1
			c0-4.9-3.8-7.3-10.4-7.3h-9.3v28.9h9.8C128.7,34.5,134.1,31.9,134.1,25.7L134.1,25.7z M126.3,13.5c0,2.3-1.2,4-4.3,4h-3.7V9.7h3.2
			C124.8,9.8,126.3,11.1,126.3,13.5L126.3,13.5z M127.9,26c0,2.7-2.2,4.1-5,4.1h-4.6v-8.4h3.7C126.1,21.7,127.9,23.3,127.9,26
			L127.9,26z M102,13.5c0,2.3-1.2,4-4.3,4H94V9.7h3.2C100.5,9.8,102,11.1,102,13.5L102,13.5z M103.6,26c0,2.7-2.2,4.1-5,4.1h-4.5
			v-8.4h3.7C101.7,21.7,103.6,23.3,103.6,26z"/>
	</g>
	<path class="st0" d="M41.2,12.4l-7.4,16.3h-1.3l7.4-16.3H41.2L41.2,12.4z M30.9,78.3c0.1,0,0.2,0,0.2,0l5.3-16.9h1.3l-5.4,17.2
		c1.1,0.5,1.9,1.7,1.9,3c0,1.8-1.5,3.3-3.3,3.3c-1.8,0-3.3-1.5-3.3-3.3S29.1,78.3,30.9,78.3L30.9,78.3z M67.1,57.1
		c1.8,0,3.3,1.5,3.3,3.3s-1.5,3.3-3.3,3.3s-3.3-1.5-3.3-3.3c0-1,0.5-1.9,1.2-2.5l-6.3-12.6h1.4l6,12C66.4,57.2,66.7,57.1,67.1,57.1
		L67.1,57.1z M66.3,14.7c4.2,0,7.6,3.4,7.6,7.6s-3.4,7.6-7.6,7.6c-0.9,0-1.7-0.1-2.5-0.4L60,39.3h-1.3l4-10.3c-2.4-1.3-4-3.8-4-6.7
		C58.7,18.1,62.1,14.7,66.3,14.7L66.3,14.7z M7,43.2c1.4,0,2.7,0.7,3.5,1.7l17.1-10.6v1.4L11.1,45.9c0.2,0.5,0.4,1.1,0.4,1.8
		c0,2.5-2,4.5-4.5,4.5s-4.5-2-4.5-4.5C2.4,45.2,4.5,43.2,7,43.2L7,43.2z M5.9,16c3.3,0,6,2.7,6,6c0,0.7-0.1,1.3-0.3,1.9l16.1,6.5
		v1.3L11.1,25c-1,1.8-2.9,2.9-5.1,2.9c-3.3,0-6-2.7-6-6C-0.1,18.7,2.6,16,5.9,16L5.9,16z M33.3,36.4l4.6,13.5h-1.4l-4.6-13.5H33.3
		L33.3,36.4z M35.3,33.4v1.3L55.2,42v-1.3L35.3,33.4z"/>
	<path class="st0" d="M55.3,39.3h5.9v5.9h-5.9V39.3L55.3,39.3z M37.3,0h12.4v12.4H37.3V0L37.3,0z M27.6,28.7h7.7v7.7h-7.7V28.7
		L27.6,28.7z M33.4,49.8H45v11.6H33.4V49.8z"/>
</g>
</svg>
